<svg width="390" height="803" viewBox="0 0 390 803" fill="none" xmlns="http://www.w3.org/2000/svg">
<g opacity="0.05">
<path d="M399.6 346.925V437.6L285.675 549.2L285.675 846.8" stroke="#0008B3"/>
<path d="M474 623.6L420.525 677.075V942.125L390.3 972.35" stroke="#0008B3"/>
<path d="M364.725 181.85V221.375L299.625 281.825V386.45" stroke="#0008B3"/>
<path d="M308.925 586.4V804.95L364.725 860.75" stroke="#0008B3"/>
<path d="M341.475 677.075V763.1L367.05 788.675" stroke="#0008B3"/>
<path d="M204.3 72.575L204.3 398.075L253.125 446.9L253.125 746.825" stroke="#0008B3"/>
<path d="M243.514 0L243.514 202.4L122.514 316.8L122.514 602.8L176.033 651.2V803" stroke="#0008B3"/>
<path d="M169.425 474.8V539.9L204.3 570.125L204.3 788.675" stroke="#0008B3"/>
<path d="M55.5001 2.82495L55.5001 600.35L150.825 688.7V791" stroke="#0008B3"/>
<path d="M95.0251 316.7L95.0251 416.675L-16.5749 528.275L-16.5749 828.2" stroke="#0008B3"/>
<path d="M6.67508 560.825L6.67508 784.025L69.4501 844.475" stroke="#0008B3"/>
<circle cx="313.575" cy="518.975" r="20.925" transform="rotate(90 313.575 518.975)" fill="#0008B3"/>
<circle cx="397.275" cy="337.625" r="16.275" transform="rotate(90 397.275 337.625)" fill="#0008B3"/>
<circle cx="169.425" cy="472.475" r="16.275" transform="rotate(90 169.425 472.475)" fill="#0008B3"/>
<circle cx="367.05" cy="181.85" r="9.3" transform="rotate(90 367.05 181.85)" fill="#0008B3"/>
<circle cx="255.45" cy="753.8" r="9.3" transform="rotate(90 255.45 753.8)" fill="#0008B3"/>
<circle cx="204.3" cy="70.2499" r="9.3" transform="rotate(90 204.3 70.2499)" fill="#0008B3"/>
<circle cx="55.5" cy="344.6" r="9.3" transform="rotate(90 55.5 344.6)" fill="#0008B3"/>
<circle cx="6.67514" cy="630.575" r="16.275" transform="rotate(90 6.67514 630.575)" fill="#0008B3"/>
</g>
</svg>
